# File created by Blade
# Date/Time:  Thu Jan 22 19:24:19 2015
# Frame Rate: 120.000 fps
#------------------------------------------------------
:FULLY-SPECIFIED
:DEGREES
2787
root 2.571948 32.423548 -3.617908 8.517452 14.440045 9.364615
RightUpLeg -18.036487 -5.307930 8.516787
RightLeg 28.585656 -0.000000 -0.000000
RightFoot -20.101917 -9.379312 -2.018055
RightToeBase 2.801289 -0.000000 -0.000000
LeftUpLeg 1.948669 -16.519905 -16.218029
LeftLeg -3.994395 -0.000000 0.000000
LeftFoot -5.214811 1.321245 -6.091851
LeftToeBase 6.883472 -0.000000 -0.000000
Spine -8.074560 -9.571922 1.228356
RightShoulder -20.886088 -19.556686 -19.865082
RightArm 15.761467 18.456638 54.385964
RightForeArm -7.225252 -0.000000 20.542420
RightHand 13.147961 -0.000000 4.516460
RightHandThumb1 -24.326973 -0.000000 -32.862282
LeftShoulder -23.169725 3.583192 30.152185
LeftArm 10.413823 -35.246690 -38.951345
LeftForeArm 11.860968 0.000000 1.041862
LeftHand 1.217037 -0.000000 4.354922
LeftHandThumb1 -26.253704 0.000000 33.147579
Head 2.284450 -5.351929 -8.083854
2788
root 2.541797 32.428034 -3.626756 8.456509 14.292824 9.336016
RightUpLeg -18.389171 -5.484538 8.609578
RightLeg 29.292479 -0.000000 -0.000000
RightFoot -19.906143 -9.147765 -1.852491
RightToeBase 2.691664 -0.000000 -0.000000
LeftUpLeg 1.896913 -16.290030 -16.165466
LeftLeg -3.901143 -0.000000 0.000000
LeftFoot -5.260395 1.215581 -6.054994
LeftToeBase 6.903353 -0.000000 -0.000000
Spine -7.888450 -9.588144 1.151968
RightShoulder -20.848945 -19.439201 -20.116471
RightArm 15.755045 19.074822 54.162874
RightForeArm -7.251222 -0.000000 20.629619
RightHand 13.197551 -0.000000 4.703734
RightHandThumb1 -24.326973 -0.000000 -32.862282
LeftShoulder -23.273088 3.683824 29.967257
LeftArm 10.347882 -35.253125 -39.190427
LeftForeArm 11.819026 -0.000000 1.087477
LeftHand 1.320641 -0.000000 4.314368
LeftHandThumb1 -26.253704 0.000000 33.147579
Head 1.942670 -5.147972 -8.181375
2789
root 2.511910 32.433027 -3.635855 8.382665 14.140626 9.318261
RightUpLeg -18.737530 -5.657143 8.704873
RightLeg 29.981698 -0.000000 -0.000000
RightFoot -19.650540 -8.989212 -1.687060
RightToeBase 2.518486 -0.000000 -0.000000
LeftUpLeg 1.865661 -16.062083 -16.137681
LeftLeg -3.817189 -0.000000 0.000000
LeftFoot -5.280690 1.189815 -6.002272
LeftToeBase 6.781794 -0.000000 -0.000000
Spine -7.681313 -9.600740 1.052574
RightShoulder -20.854364 -19.375892 -20.287794
RightArm 15.814029 19.471227 53.814877
RightForeArm -7.100100 0.000000 20.691153
RightHand 13.230786 -0.000000 4.549937
RightHandThumb1 -24.326973 -0.000000 -32.862282
LeftShoulder -23.354449 3.764377 29.802480
LeftArm 10.239134 -35.232358 -39.363557
LeftForeArm 11.798908 -0.000000 1.096765
LeftHand 1.330562 -0.000000 4.136326
LeftHandThumb1 -26.253704 0.000000 33.147579
Head 1.588779 -4.962182 -8.236230
2790
root 2.479229 32.438980 -3.643746 8.296289 13.970359 9.274353
RightUpLeg -19.096450 -5.923037 8.856809
RightLeg 30.712161 -0.000000 -0.000000
RightFoot -19.329766 -8.833464 -1.633536
RightToeBase 2.288277 -0.000000 -0.000000
LeftUpLeg 1.843268 -15.830640 -16.075895
LeftLeg -3.740984 -0.000000 0.000000
LeftFoot -5.311259 1.161047 -6.064999
LeftToeBase 6.689675 -0.000000 -0.000000
Spine -7.466251 -9.588627 0.954548
RightShoulder -20.835817 -19.236100 -20.493374
RightArm 15.775368 19.887720 53.506475
RightForeArm -7.099286 -0.000000 20.750650
RightHand 13.212584 -0.000000 4.348026
RightHandThumb1 -24.326973 -0.000000 -32.862282
LeftShoulder -23.412860 3.813822 29.681712
LeftArm 10.080220 -35.240748 -39.540036
LeftForeArm 11.835900 0.000000 1.128506
LeftHand 1.406612 0.000000 4.006126
LeftHandThumb1 -26.253704 0.000000 33.147579
Head 1.239598 -4.799130 -8.222738
2791
root 2.445671 32.445181 -3.651844 8.204000 13.804724 9.217024
RightUpLeg -19.456485 -6.145900 9.008896
RightLeg 31.445819 -0.000000 -0.000000
RightFoot -18.924836 -8.693451 -1.712719
RightToeBase 1.870430 -0.000000 -0.000000
LeftUpLeg 1.814911 -15.545212 -16.002323
LeftLeg -3.639441 -0.000000 0.000000
LeftFoot -5.372415 1.063634 -6.061793
LeftToeBase 6.674563 -0.000000 -0.000000
Spine -7.251843 -9.584134 0.861940
RightShoulder -20.843794 -19.217797 -20.659589
RightArm 15.897113 20.379376 53.285464
RightForeArm -7.084206 -0.000000 20.788639
RightHand 13.368708 -0.000000 4.506444
RightHandThumb1 -24.326973 -0.000000 -32.862282
LeftShoulder -23.485284 3.887553 29.568706
LeftArm 10.026968 -35.239840 -39.764107
LeftForeArm 11.798414 0.000000 1.080695
LeftHand 1.398838 -0.000000 4.070583
LeftHandThumb1 -26.253704 0.000000 33.147579
Head 0.912746 -4.754318 -8.183799
2792
root 2.411282 32.450026 -3.661259 8.102287 13.612422 9.143055
RightUpLeg -19.831945 -6.271228 9.184665
RightLeg 32.190165 -0.000000 -0.000000
RightFoot -18.417601 -8.701449 -1.886931
RightToeBase 1.362370 -0.000000 -0.000000
LeftUpLeg 1.791327 -15.172121 -15.921786
LeftLeg -3.534521 -0.000000 0.000000
LeftFoot -5.472293 0.942151 -6.086416
LeftToeBase 6.738090 -0.000000 -0.000000
Spine -7.029302 -9.563996 0.768338
RightShoulder -20.790502 -19.069306 -20.832338
RightArm 15.832724 20.714488 52.930582
RightForeArm -7.000898 -0.000000 20.866338
RightHand 13.340183 -0.000000 4.358549
RightHandThumb1 -24.326973 -0.000000 -32.862282
LeftShoulder -23.554354 3.987026 29.487363
LeftArm 10.003979 -35.357689 -40.023007
LeftForeArm 11.966327 -0.000000 0.994753
LeftHand 1.230827 0.000000 4.181339
LeftHandThumb1 -26.253704 0.000000 33.147579
Head 0.598203 -4.521276 -8.147702
2793
root 2.374092 32.455762 -3.670048 7.997597 13.390618 9.062620
RightUpLeg -20.214480 -6.376283 9.355484
RightLeg 32.946438 -0.000000 -0.000000
RightFoot -17.821310 -8.659533 -2.172294
RightToeBase 0.612546 -0.000000 -0.000000
LeftUpLeg 1.764315 -14.731632 -15.815010
LeftLeg -3.444154 -0.000000 0.000000
LeftFoot -5.534320 0.719012 -6.047372
LeftToeBase 6.663436 -0.000000 -0.000000
Spine -6.805285 -9.522723 0.662405
RightShoulder -20.755422 -18.965831 -21.005843
RightArm 15.844178 21.112448 52.677772
RightForeArm -7.053668 -0.000000 20.970608
RightHand 13.408812 -0.000000 4.528376
RightHandThumb1 -24.326973 -0.000000 -32.862282
LeftShoulder -23.603413 4.075595 29.404566
LeftArm 9.913787 -35.392627 -40.206913
LeftForeArm 12.018793 -0.000000 0.966932
LeftHand 1.180688 -0.000000 4.128209
LeftHandThumb1 -26.253704 0.000000 33.147579
Head 0.273272 -4.413544 -8.024616
2794
root 2.338158 32.462382 -3.678720 7.895140 13.171310 8.986200
RightUpLeg -20.587647 -6.410836 9.497004
RightLeg 33.681215 -0.000000 -0.000000
RightFoot -17.236265 -8.575632 -2.374389
RightToeBase -0.008595 -0.000000 0.000000
LeftUpLeg 1.744769 -14.331181 -15.722900
LeftLeg -3.364952 -0.000000 0.000000
LeftFoot -5.583879 0.569594 -5.901195
LeftToeBase 6.559388 -0.000000 -0.000000
Spine -6.573706 -9.471366 0.536814
RightShoulder -20.746073 -18.777849 -21.133798
RightArm 15.786398 21.359626 52.316622
RightForeArm -6.880099 -0.000000 21.051914
RightHand 13.340774 0.000000 4.262834
RightHandThumb1 -24.326973 -0.000000 -32.862282
LeftShoulder -23.663530 4.116377 29.354345
LeftArm 9.812801 -35.174952 -40.359846
LeftForeArm 11.930613 -0.000000 0.961897
LeftHand 1.110785 -0.000000 4.129905
LeftHandThumb1 -26.253704 0.000000 33.147579
Head -0.073838 -4.245120 -7.884973
2795
root 2.302747 32.469036 -3.688812 7.788661 12.942808 8.946338
RightUpLeg -20.951990 -6.472009 9.616007
RightLeg 34.405324 -0.000000 -0.000000
RightFoot -16.628516 -8.568800 -2.683185
RightToeBase -0.881489 -0.000000 0.000000
LeftUpLeg 1.725757 -14.041960 -15.668848
LeftLeg -3.268567 -0.000000 0.000000
LeftFoot -5.620351 0.541889 -5.949809
LeftToeBase 6.395932 -0.000000 -0.000000
Spine -6.349482 -9.439031 0.364623
RightShoulder -20.654372 -18.627639 -21.294122
RightArm 15.716698 21.866324 52.117513
RightForeArm -7.094959 -0.000000 21.206576
RightHand 13.355289 -0.000000 4.217711
RightHandThumb1 -24.326973 -0.000000 -32.862282
LeftShoulder -23.664538 4.181427 29.304150
LeftArm 9.642635 -34.984232 -40.451475
LeftForeArm 11.799938 -0.000000 0.974397
LeftHand 1.055758 -0.000000 4.138017
LeftHandThumb1 -26.253704 0.000000 33.147579
Head -0.320293 -4.085077 -7.773460
